<?xml version="1.0" standalone="no"?>
<!DOCTYPE svg PUBLIC "-//W3C//DTD SVG 20010904//EN"
 "http://www.w3.org/TR/2001/REC-SVG-20010904/DTD/svg10.dtd">
<svg version="1.0" xmlns="http://www.w3.org/2000/svg"
 width="74.000000pt" height="74.000000pt" viewBox="0 0 74.000000 74.000000"
 preserveAspectRatio="xMidYMid meet">
<metadata>
Created by potrace 1.14, written by Peter Selinger 2001-2017
</metadata>
<g transform="translate(0.000000,74.000000) scale(0.100000,-0.100000)"
fill="#000000" stroke="none">
<path d="M250 725 c-25 -7 -69 -22 -98 -35 l-52 -22 0 -187 0 -187 -45 -12
-46 -12 3 -88 3 -87 33 -3 c26 -3 32 0 32 16 0 45 49 30 229 -72 l63 -36 83
44 c74 39 91 44 149 44 36 0 82 6 101 12 l35 12 0 83 c0 87 -4 95 -51 95 -12
0 -19 -7 -19 -20 0 -11 -4 -20 -10 -20 -6 0 -10 76 -10 209 l0 209 -50 21
c-112 48 -251 63 -350 36z m248 -20 c3 -3 -3 -5 -14 -5 -10 0 12 -11 50 -25
70 -24 90 -40 78 -60 -3 -5 2 -4 11 4 15 12 17 12 11 -3 -3 -9 -10 -16 -15
-16 -5 0 -9 -8 -9 -17 0 -15 2 -16 10 -3 5 8 12 12 15 8 3 -3 -1 -13 -10 -21
-8 -9 -15 -22 -15 -29 0 -10 3 -9 10 2 5 8 12 12 15 8 3 -3 -1 -13 -10 -21 -8
-9 -15 -22 -15 -29 0 -10 3 -9 10 2 5 8 12 12 15 8 3 -3 -1 -13 -10 -21 -8 -9
-15 -22 -15 -29 0 -10 3 -9 10 2 5 8 12 12 15 8 3 -3 -1 -13 -10 -21 -8 -9
-15 -22 -15 -29 0 -10 3 -9 10 2 5 8 12 12 15 8 3 -3 -1 -13 -10 -21 -8 -9
-15 -22 -15 -29 0 -10 3 -9 10 2 5 8 12 12 15 8 3 -3 -1 -13 -10 -21 -8 -9
-15 -22 -15 -29 0 -10 3 -9 10 2 5 8 12 12 15 8 3 -3 -1 -13 -10 -21 -8 -9
-15 -22 -15 -29 0 -10 3 -9 10 2 5 8 12 12 15 8 3 -3 -1 -13 -10 -21 -18 -19
-19 -27 -2 -23 6 1 9 1 4 -1 -4 -3 -5 -8 -2 -12 4 -7 -14 -7 -72 -2 -9 1 -13
22 -13 71 0 44 -6 82 -15 100 -19 36 -23 61 -24 128 -1 49 -3 53 -23 50 -20
-3 -22 -9 -25 -78 -6 -134 -41 -108 -48 36 -2 46 -7 88 -9 93 -3 5 -16 6 -28
4 -22 -4 -23 -9 -24 -92 -2 -146 -43 -180 -46 -38 -2 73 -4 77 -25 77 -21 0
-23 -5 -24 -52 -2 -78 -4 -90 -23 -125 -9 -18 -16 -53 -16 -78 l0 -46 -45 2
c-38 2 -43 5 -32 18 9 12 9 13 -1 7 -13 -8 -17 6 -5 18 10 10 11 226 1 220 -4
-3 -8 -1 -8 5 0 5 4 12 9 15 12 8 8 30 -8 49 -11 14 -7 19 26 36 49 24 151 51
189 50 24 -2 22 -3 -11 -9 l-40 -7 43 -2 c29 -1 42 3 42 12 0 11 13 12 62 5
34 -4 64 -10 66 -13z m81 -26 c28 -12 51 -26 51 -32 0 -6 -5 -6 -13 1 -7 6
-35 20 -62 31 -28 11 -45 20 -39 20 6 1 34 -9 63 -20z m-452 -74 c0 -8 -4 -12
-9 -9 -5 3 -6 10 -3 15 9 13 12 11 12 -6z m3 -65 c0 -5 -2 -10 -4 -10 -3 0 -8
5 -11 10 -3 6 -1 10 4 10 6 0 11 -4 11 -10z m-3 -95 c0 -8 -4 -12 -9 -9 -5 3
-6 10 -3 15 9 13 12 11 12 -6z m193 -322 c58 -8 123 -19 145 -25 l40 -10 -65
-33 -65 -33 -77 41 c-43 22 -76 42 -74 44 2 2 37 -14 77 -36 l74 -39 55 28
c30 16 51 29 47 30 -4 0 -29 -11 -56 -24 l-47 -24 -80 43 c-82 46 -100 53 -88
34 5 -9 -29 4 -44 16 -8 7 62 1 158 -12z"/>
<path d="M398 703 c12 -2 32 -2 45 0 12 2 2 4 -23 4 -25 0 -35 -2 -22 -4z"/>
<path d="M235 693 c-46 -11 -114 -46 -109 -55 4 -6 9 -5 14 2 5 7 39 23 76 36
62 20 72 30 19 17z"/>
</g>
</svg>
